<svg id="Logo" xmlns="http://www.w3.org/2000/svg" viewBox="0 0 225.5 43.1"><style>.st0{fill:#fff}.st1{fill:#fbba00}</style><path class="st0" d="M0 28.1l4-2.4c1.3 2.6 3.7 4.1 6.5 4.1 2.4 0 4.2-.9 4.2-2.7 0-1.8-1.7-2.6-4.8-3.5C5.5 22.5 1 21.4 1 16.4c0-4.5 3.5-7.1 8.6-7.1 4.9 0 7.8 2.4 9.5 4.9L15.4 17c-1.3-2-3.6-3.4-5.9-3.4-2.2 0-3.5 1-3.5 2.4 0 1.9 1.8 2.6 4.9 3.5 4.2 1.1 8.7 2.5 8.7 7.4 0 3.8-2.9 7.3-9.6 7.3-5-.2-8.2-2.6-10-6.1zm20.7 5.5l8.5-24h5l8.5 24h-5.3l-1.8-5.3h-8.1l-1.8 5.3h-5zm8-9.2h5.6l-2.7-8.1h-.1l-2.8 8.1zm16.6 9.2V9.7H54c5.1 0 9.8 1.4 9.8 7.7 0 6.4-5 7.8-9.8 7.8h-3.4v8.5h-5.3zM50.5 21h3.6c3.3 0 4.5-1.3 4.5-3.6 0-2.2-1.2-3.5-4.5-3.5h-3.6V21zM73 33.6l8.4-24h5l8.4 24h-5.3l-1.8-5h-8.1l-1.8 5H73zm7.9-9h5.6l-2.7-8h-.1l-2.8 8zm17 9v-17h5v3h-.2c.9-2 2.6-4 5.8-4h.2l-.1 4.8h-1.3c-2.1 0-3.5 1.2-4.5 2.5v10.7h-4.9zm14-20v-4h5v4h-5zm0 20v-17h5v17h-5zm14-2.1v2.1h-5v-24h5V19c1-1.6 2.8-3 5.3-3 3.9 0 6.6 3 6.6 8.9s-2.8 8.9-6.7 8.9c-2.2 0-4.2-.9-5.2-2.3zm6.8-6.6c0-2.9-1.1-4.7-3.4-4.7-1.3 0-2.4.8-3.4 1.7v6.3c1 1.1 2.1 1.6 3.5 1.6 2.2.1 3.3-1.7 3.3-4.9zm7.2 4.2c0-4 3-6.2 11-6.8V22c0-1.3-.7-2.1-2.4-2.1-2.2 0-4.1.9-5.7 2.1l-2.2-3c1.7-1.5 4.3-3.1 8.6-3.1 4.7 0 6.7 2.3 6.7 6.7v6.6c0 2.1 0 3.2.4 4.2h-5.2c-.2-1-.4-1.6-.4-2.5-1.6 1.8-3.4 2.8-5.9 2.8-2.6.1-4.9-1.6-4.9-4.6zm11-.7v-3.2c-4 .4-5.9 1.4-5.9 3 0 1.1.8 1.6 1.9 1.6 1.9.1 3-.5 4-1.4z"/><path id="XMLID_3_" class="st1" d="M218.3 41.8L195.7 0h5c1 0 1.8.5 2.2 1.3l22.6 41.8h-5c-.9 0-1.8-.5-2.2-1.3zm-42.4 1.3h5c1 0 1.8-.5 2.2-1.3l6.2-11.4-3.2-6-10.2 18.7zm-9.7 0c1 0 1.8-.5 2.2-1.3L186 9.3l17.6 32.5c.4.8 1.2 1.3 2.2 1.3h5L188.2 1.3C187.8.5 187 0 186 0c-.9 0-1.8.5-2.2 1.3l-22.6 41.8h5z"/></svg>